<svg width="2366" height="792" viewBox="0 0 2366 792" fill="none" xmlns="http://www.w3.org/2000/svg">
<path fill-rule="evenodd" clip-rule="evenodd" d="M1425.54 325.449C1506.37 338.769 1554.5 353.982 1554.5 368.335C1554.5 405.891 1350.96 481.335 968.5 481.335C586.043 481.335 198.5 418.891 198.5 381.335C198.5 355.109 326.044 319.672 533.241 300.678C540.849 294.945 545.546 289.169 545.079 283.511C544.392 275.17 538.911 268.129 532.21 262.201C218.036 280.464 0 323.58 0 386.378C0 471.43 399.944 560.378 897 560.378C1394.06 560.378 1797 491.43 1797 406.378C1797 355.859 1654.84 311.022 1435.23 282.94C1423.45 290.116 1415.29 297.679 1415.91 305.378C1416.5 312.804 1420.47 319.482 1425.54 325.449ZM989.732 253.185C989.506 253.181 989.279 253.178 989.053 253.174C989.114 253.191 989.175 253.208 989.235 253.226C989.401 253.212 989.567 253.199 989.732 253.185Z" fill="#E4242C"/>
<path fill-rule="evenodd" clip-rule="evenodd" d="M206.498 158.36C200.863 158.973 200.434 167.007 205.971 168.216L644.525 263.951C681.875 272.105 696.63 317.455 671.227 346.024L591.129 436.108L715.652 448.628L941.152 457.674L1105.48 450.561L1161 413.174L1667.55 8.91147C1671.46 5.78895 1668.86 -0.507932 1663.89 0.0327084L206.498 158.36ZM898.911 589.674H761L510 570.174L429.626 560.352L246.337 670.749C242.595 673.002 243.34 678.634 247.539 679.838L307.205 696.942C310.063 697.761 312.988 698.324 315.946 698.624L387.779 705.898C389.59 706.081 391.413 706.1 393.226 705.952L446 701.674L549.641 680.608C560.371 678.427 570.86 685.28 573.173 695.983L592.942 787.46C593.688 790.916 597.689 792.526 600.622 790.551L898.911 589.674Z" fill="#3C4494"/>
<path d="M312.5 537.174C271 595.174 269 614.173 216 622.174C165.466 622.174 142.5 609.173 133 587.173C133 562.873 165.466 534.174 216 534.174C266.534 534.174 240.5 534.674 312.5 537.174Z" fill="#3C4494"/>
<path d="M924.704 627.4H949.024C958.411 627.4 965.749 629.917 971.04 634.952C976.331 639.901 978.976 647.155 978.976 656.712C978.976 666.355 976.331 673.693 971.04 678.728C965.749 683.677 958.411 686.152 949.024 686.152H938.144V717H924.704V627.4ZM947.872 674.12C953.675 674.12 957.984 672.712 960.8 669.896C963.616 666.995 965.024 662.6 965.024 656.712C965.024 645.107 959.307 639.304 947.872 639.304H938.144V674.12H947.872ZM1005.18 639.688H983.167V627.4H1040.51V639.688H1018.5V717H1005.18V639.688ZM1042.74 701.768H1056.82V717H1042.74V701.768ZM1094.95 627.4H1123.75C1131.09 627.4 1137.61 629.192 1143.33 632.776C1149.13 636.36 1153.66 641.523 1156.9 648.264C1160.14 655.005 1161.76 662.984 1161.76 672.2C1161.76 681.416 1160.14 689.395 1156.9 696.136C1153.66 702.877 1149.13 708.04 1143.33 711.624C1137.61 715.208 1131.09 717 1123.75 717H1094.95V627.4ZM1122.6 704.712C1130.53 704.712 1136.55 701.896 1140.64 696.264C1144.83 690.547 1146.92 682.525 1146.92 672.2C1146.92 661.875 1144.83 653.896 1140.64 648.264C1136.55 642.547 1130.53 639.688 1122.6 639.688H1108.39V704.712H1122.6ZM1174.2 627.4H1223.22V639.688H1187.64V664.008H1215.41V676.296H1187.64V704.712H1224.25V717H1174.2V627.4ZM1255.65 671.56L1229.28 627.4H1243.87L1262.82 659.4L1281.63 627.4H1296.22L1269.98 671.56L1297.12 717H1282.53L1262.82 683.592L1243.1 717H1228.51L1255.65 671.56ZM1345.24 693.96H1318.49L1311.84 717H1298.01L1325.4 627.4H1338.46L1365.85 717H1352.03L1345.24 693.96ZM1341.66 681.544L1331.93 648.008L1322.08 681.544H1341.66ZM1438.99 693.96H1412.24L1405.59 717H1391.76L1419.15 627.4H1432.21L1459.6 717H1445.78L1438.99 693.96ZM1435.41 681.544L1425.68 648.008L1415.83 681.544H1435.41ZM1468.83 627.4H1493.15C1502.54 627.4 1509.87 629.704 1515.17 634.312C1520.46 638.92 1523.1 645.789 1523.1 654.92C1523.1 660.211 1521.91 664.947 1519.52 669.128C1517.21 673.309 1513.97 676.552 1509.79 678.856L1527.33 717H1511.84L1496.48 682.696C1495.97 682.781 1494.98 682.824 1493.53 682.824H1482.27V717H1468.83V627.4ZM1492 670.92C1497.8 670.92 1502.11 669.64 1504.93 667.08C1507.74 664.435 1509.15 660.467 1509.15 655.176C1509.15 649.8 1507.74 645.832 1504.93 643.272C1502.11 640.627 1497.8 639.304 1492 639.304H1482.27V670.92H1492ZM1537.57 627.4H1584.93V639.688H1551.01V663.88H1577.25V676.168H1551.01V717H1537.57V627.4ZM1595.58 627.4H1609.02V717H1595.58V627.4ZM1626.2 627.4H1640.66L1673.56 688.712V627.4H1686.87V717H1674.84L1639.64 651.976V717H1626.2V627.4ZM1703.82 627.4H1732.62C1739.96 627.4 1746.49 629.192 1752.21 632.776C1758.01 636.36 1762.53 641.523 1765.78 648.264C1769.02 655.005 1770.64 662.984 1770.64 672.2C1770.64 681.416 1769.02 689.395 1765.78 696.136C1762.53 702.877 1758.01 708.04 1752.21 711.624C1746.49 715.208 1739.96 717 1732.62 717H1703.82V627.4ZM1731.47 704.712C1739.41 704.712 1745.42 701.896 1749.52 696.264C1753.7 690.547 1755.79 682.525 1755.79 672.2C1755.79 661.875 1753.7 653.896 1749.52 648.264C1745.42 642.547 1739.41 639.688 1731.47 639.688H1717.26V704.712H1731.47ZM1816.48 718.792C1809.14 718.792 1802.57 716.872 1796.77 713.032C1791.05 709.192 1786.57 703.773 1783.33 696.776C1780.09 689.693 1778.47 681.501 1778.47 672.2C1778.47 662.899 1780.09 654.749 1783.33 647.752C1786.57 640.669 1791.05 635.208 1796.77 631.368C1802.57 627.528 1809.14 625.608 1816.48 625.608C1823.82 625.608 1830.35 627.528 1836.07 631.368C1841.78 635.208 1846.26 640.669 1849.51 647.752C1852.75 654.749 1854.37 662.899 1854.37 672.2C1854.37 681.501 1852.75 689.693 1849.51 696.776C1846.26 703.773 1841.78 709.192 1836.07 713.032C1830.35 716.872 1823.82 718.792 1816.48 718.792ZM1816.48 705.352C1824.08 705.352 1829.92 702.28 1834.02 696.136C1838.11 689.992 1840.16 682.013 1840.16 672.2C1840.16 662.387 1838.11 654.408 1834.02 648.264C1829.92 642.12 1824.08 639.048 1816.48 639.048C1808.89 639.048 1803.04 642.12 1798.95 648.264C1794.85 654.408 1792.8 662.387 1792.8 672.2C1792.8 682.013 1794.85 689.992 1798.95 696.136C1803.04 702.28 1808.89 705.352 1816.48 705.352ZM1891.83 627.4H1916.15C1925.54 627.4 1932.87 629.917 1938.17 634.952C1943.46 639.901 1946.1 647.155 1946.1 656.712C1946.1 666.355 1943.46 673.693 1938.17 678.728C1932.87 683.677 1925.54 686.152 1916.15 686.152H1905.27V717H1891.83V627.4ZM1915 674.12C1920.8 674.12 1925.11 672.712 1927.93 669.896C1930.74 666.995 1932.15 662.6 1932.15 656.712C1932.15 645.107 1926.43 639.304 1915 639.304H1905.27V674.12H1915ZM1957.2 627.4H1981.52C1990.91 627.4 1998.25 629.704 2003.54 634.312C2008.83 638.92 2011.48 645.789 2011.48 654.92C2011.48 660.211 2010.28 664.947 2007.89 669.128C2005.59 673.309 2002.35 676.552 1998.16 678.856L2015.7 717H2000.21L1984.85 682.696C1984.34 682.781 1983.36 682.824 1981.91 682.824H1970.64V717H1957.2V627.4ZM1980.37 670.92C1986.17 670.92 1990.48 669.64 1993.3 667.08C1996.12 664.435 1997.52 660.467 1997.52 655.176C1997.52 649.8 1996.12 645.832 1993.3 643.272C1990.48 640.627 1986.17 639.304 1980.37 639.304H1970.64V670.92H1980.37ZM2065.24 693.96H2038.49L2031.84 717H2018.01L2045.4 627.4H2058.46L2085.85 717H2072.03L2065.24 693.96ZM2061.66 681.544L2051.93 648.008L2042.08 681.544H2061.66ZM2104.31 639.688H2082.29V627.4H2139.64V639.688H2117.62V717H2104.31V639.688ZM2183.24 693.96H2156.49L2149.84 717H2136.01L2163.4 627.4H2176.46L2203.85 717H2190.03L2183.24 693.96ZM2179.66 681.544L2169.93 648.008L2160.08 681.544H2179.66ZM2277.21 717L2270.94 655.56L2250.58 698.696L2230.23 655.56L2223.83 717H2209.75L2220.12 627.4H2231.26L2250.58 670.536L2269.78 627.4H2280.92L2291.29 717H2277.21ZM2343.99 693.96H2317.24L2310.59 717H2296.76L2324.15 627.4H2337.21L2364.6 717H2350.78L2343.99 693.96ZM2340.41 681.544L2330.68 648.008L2320.83 681.544H2340.41Z" fill="#342C2C"/>
</svg>
